REM DIRINDEX 1\2,1\3,1\4,1\5,1\6
REM DIRNAME cjc030,folder01,folder02,folder03,folder04,folder05
TITLE ""
FILE "Disc1Track52.mp3" MP3
  TRACK 01 AUDIO
    TITLE "3:cjc030_01242"
    INDEX 01 00:00:00
  TRACK 02 AUDIO
    TITLE "0:"
    INDEX 01 00:01:17
  TRACK 03 AUDIO
    TITLE "4:cjc030_01243"
    INDEX 01 00:01:26
  TRACK 04 AUDIO
    TITLE "0:"
    INDEX 01 00:03:47
  TRACK 05 AUDIO
    TITLE "5:cjc030_01244"
    INDEX 01 00:03:53
  TRACK 06 AUDIO
    TITLE "0:"
    INDEX 01 00:05:01
  TRACK 07 AUDIO
    TITLE "6:cjc030_01245"
    INDEX 01 00:05:16
  TRACK 08 AUDIO
    TITLE "0:"
    INDEX 01 00:09:02
  TRACK 09 AUDIO
    TITLE "3:cjc030_01246"
    INDEX 01 00:09:49
  TRACK 10 AUDIO
    TITLE "0:"
    INDEX 01 00:11:03
  TRACK 11 AUDIO
    TITLE "4:cjc030_01247"
    INDEX 01 00:11:13
  TRACK 12 AUDIO
    TITLE "0:"
    INDEX 01 00:13:18
  TRACK 13 AUDIO
    TITLE "5:cjc030_01248"
    INDEX 01 00:13:24
  TRACK 14 AUDIO
    TITLE "0:"
    INDEX 01 00:14:54
  TRACK 15 AUDIO
    TITLE "6:cjc030_01249"
    INDEX 01 00:14:68
  TRACK 16 AUDIO
    TITLE "0:"
    INDEX 01 00:18:11
  TRACK 17 AUDIO
    TITLE "3:cjc030_01250"
    INDEX 01 00:18:56
  TRACK 18 AUDIO
    TITLE "0:"
    INDEX 01 00:19:73
  TRACK 19 AUDIO
    TITLE "4:cjc030_01251"
    INDEX 01 00:20:06
  TRACK 20 AUDIO
    TITLE "0:"
    INDEX 01 00:21:45
  TRACK 21 AUDIO
    TITLE "5:cjc030_01252"
    INDEX 01 00:21:53
  TRACK 22 AUDIO
    TITLE "0:"
    INDEX 01 00:22:70
  TRACK 23 AUDIO
    TITLE "6:cjc030_01253"
    INDEX 01 00:23:08
  TRACK 24 AUDIO
    TITLE "0:"
    INDEX 01 00:25:60
  TRACK 25 AUDIO
    TITLE "3:cjc030_01254"
    INDEX 01 00:26:30
  TRACK 26 AUDIO
    TITLE "0:"
    INDEX 01 00:27:51
  TRACK 27 AUDIO
    TITLE "4:cjc030_01255"
    INDEX 01 00:27:61
  TRACK 28 AUDIO
    TITLE "0:"
    INDEX 01 00:29:01
  TRACK 29 AUDIO
    TITLE "5:cjc030_01256"
    INDEX 01 00:29:11
  TRACK 30 AUDIO
    TITLE "0:"
    INDEX 01 00:30:32
  TRACK 31 AUDIO
    TITLE "6:cjc030_01257"
    INDEX 01 00:30:44
  TRACK 32 AUDIO
    TITLE "0:"
    INDEX 01 00:32:45
  TRACK 33 AUDIO
    TITLE "3:cjc030_01258"
    INDEX 01 00:33:19
  TRACK 34 AUDIO
    TITLE "0:"
    INDEX 01 00:34:45
  TRACK 35 AUDIO
    TITLE "4:cjc030_01259"
    INDEX 01 00:34:55
  TRACK 36 AUDIO
    TITLE "0:"
    INDEX 01 00:36:56
  TRACK 37 AUDIO
    TITLE "5:cjc030_01260"
    INDEX 01 00:36:64
  TRACK 38 AUDIO
    TITLE "0:"
    INDEX 01 00:38:16
  TRACK 39 AUDIO
    TITLE "6:cjc030_01261"
    INDEX 01 00:38:30
  TRACK 40 AUDIO
    TITLE "0:"
    INDEX 01 00:43:29
  TRACK 41 AUDIO
    TITLE "3:cjc030_01262"
    INDEX 01 00:44:03
  TRACK 42 AUDIO
    TITLE "0:"
    INDEX 01 00:45:14
  TRACK 43 AUDIO
    TITLE "4:cjc030_01263"
    INDEX 01 00:45:22
  TRACK 44 AUDIO
    TITLE "0:"
    INDEX 01 00:46:27
  TRACK 45 AUDIO
    TITLE "5:cjc030_01264"
    INDEX 01 00:46:33
  TRACK 46 AUDIO
    TITLE "0:"
    INDEX 01 00:47:46
  TRACK 47 AUDIO
    TITLE "6:cjc030_01265"
    INDEX 01 00:47:60
  TRACK 48 AUDIO
    TITLE "0:"
    INDEX 01 00:52:63
  TRACK 49 AUDIO
    TITLE "3:cjc030_01266"
    INDEX 01 00:53:35
  TRACK 50 AUDIO
    TITLE "0:"
    INDEX 01 00:54:44
  TRACK 51 AUDIO
    TITLE "4:cjc030_01267"
    INDEX 01 00:54:52
  TRACK 52 AUDIO
    TITLE "0:"
    INDEX 01 00:55:59
  TRACK 53 AUDIO
    TITLE "5:cjc030_01268"
    INDEX 01 00:55:67
  TRACK 54 AUDIO
    TITLE "0:"
    INDEX 01 00:57:01
  TRACK 55 AUDIO
    TITLE "6:cjc030_01269"
    INDEX 01 00:57:13
  TRACK 56 AUDIO
    TITLE "0:"
    INDEX 01 01:03:61
  TRACK 57 AUDIO
    TITLE "3:cjc030_01270"
    INDEX 01 01:04:35
  TRACK 58 AUDIO
    TITLE "0:"
    INDEX 01 01:06:26
  TRACK 59 AUDIO
    TITLE "4:cjc030_01271"
    INDEX 01 01:06:34
  TRACK 60 AUDIO
    TITLE "0:"
    INDEX 01 01:09:18
  TRACK 61 AUDIO
    TITLE "5:cjc030_01272"
    INDEX 01 01:09:26
  TRACK 62 AUDIO
    TITLE "0:"
    INDEX 01 01:11:19
  TRACK 63 AUDIO
    TITLE "6:cjc030_01273"
    INDEX 01 01:11:31
  TRACK 64 AUDIO
    TITLE "0:"
    INDEX 01 01:16:30
